<mxfile host="app.diagrams.net" agent="Mozilla/5.0 (Windows NT 10.0; Win64; x64) AppleWebKit/537.36 (KHTML, like Gecko) Chrome/135.0.0.0 Safari/537.36" version="26.2.14">
  <diagram name="Page-1" id="3WrCtMFRqj1QOnCrlEEc">
    <mxGraphModel dx="947" dy="486" grid="1" gridSize="10" guides="1" tooltips="1" connect="1" arrows="1" fold="1" page="1" pageScale="1" pageWidth="850" pageHeight="1100" background="light-dark(#FFFFFF,#FFFFFF)" math="0" shadow="0">
      <root>
        <mxCell id="0" />
        <mxCell id="1" parent="0" />
        <mxCell id="1eNqCUqUD9JuJW1qk43Z-1" value="" style="swimlane;startSize=0;swimlaneFillColor=none;strokeWidth=3;strokeColor=light-dark(#000000,#000000);labelBackgroundColor=none;fontColor=light-dark(#000000,#000000);" parent="1" vertex="1">
          <mxGeometry x="249" y="100" width="260" height="660" as="geometry">
            <mxRectangle x="260" y="90" width="50" height="40" as="alternateBounds" />
          </mxGeometry>
        </mxCell>
        <mxCell id="1eNqCUqUD9JuJW1qk43Z-10" value="&lt;font style=&quot;color: light-dark(rgb(0, 0, 0), rgb(0, 0, 0)); font-size: 14px;&quot; face=&quot;Courier New&quot;&gt;&lt;b&gt;Gestione&lt;/b&gt;&lt;/font&gt;&lt;div&gt;&lt;font style=&quot;color: light-dark(rgb(0, 0, 0), rgb(0, 0, 0)); font-size: 14px;&quot; face=&quot;Courier New&quot;&gt;&lt;b&gt;Account&lt;/b&gt;&lt;/font&gt;&lt;/div&gt;" style="ellipse;whiteSpace=wrap;html=1;fillColor=light-dark(#FFFFFF,#FFFFFF);strokeColor=light-dark(#000000,#000000);" parent="1eNqCUqUD9JuJW1qk43Z-1" vertex="1">
          <mxGeometry x="47.5" y="40" width="165" height="60" as="geometry" />
        </mxCell>
        <mxCell id="1eNqCUqUD9JuJW1qk43Z-13" value="&lt;font face=&quot;Courier New&quot; style=&quot;color: light-dark(rgb(0, 0, 0), rgb(0, 0, 0)); font-size: 14px;&quot;&gt;&lt;b&gt;Gestione&lt;/b&gt;&lt;/font&gt;&lt;div&gt;&lt;span style=&quot;font-family: &amp;quot;Courier New&amp;quot;;&quot;&gt;&lt;font style=&quot;color: light-dark(rgb(0, 0, 0), rgb(0, 0, 0)); font-size: 14px;&quot;&gt;&lt;b&gt;Revisioni&lt;/b&gt;&lt;/font&gt;&lt;/span&gt;&lt;/div&gt;" style="ellipse;whiteSpace=wrap;html=1;fillColor=light-dark(#FFFFFF,#FFFFFF);strokeColor=light-dark(#000000,#000000);" parent="1eNqCUqUD9JuJW1qk43Z-1" vertex="1">
          <mxGeometry x="47.5" y="140" width="165" height="60" as="geometry" />
        </mxCell>
        <mxCell id="1eNqCUqUD9JuJW1qk43Z-14" value="&lt;font face=&quot;Courier New&quot; style=&quot;color: light-dark(rgb(0, 0, 0), rgb(0, 0, 0)); font-size: 14px;&quot;&gt;&lt;b&gt;Gestione&lt;/b&gt;&lt;/font&gt;&lt;div&gt;&lt;font style=&quot;color: light-dark(rgb(0, 0, 0), rgb(0, 0, 0)); font-size: 14px;&quot; face=&quot;Courier New&quot;&gt;&lt;b&gt;Conferenza&lt;/b&gt;&lt;/font&gt;&lt;/div&gt;" style="ellipse;whiteSpace=wrap;html=1;fillColor=light-dark(#FFFFFF,#FFFFFF);strokeColor=light-dark(#000000,#000000);" parent="1eNqCUqUD9JuJW1qk43Z-1" vertex="1">
          <mxGeometry x="47.5" y="240" width="165" height="60" as="geometry" />
        </mxCell>
        <mxCell id="1eNqCUqUD9JuJW1qk43Z-15" value="&lt;font face=&quot;Courier New&quot; style=&quot;color: light-dark(rgb(0, 0, 0), rgb(0, 0, 0)); font-size: 14px;&quot;&gt;&lt;b&gt;Gestione&lt;/b&gt;&lt;/font&gt;&lt;div&gt;&lt;span style=&quot;font-family: &amp;quot;Courier New&amp;quot;;&quot;&gt;&lt;font style=&quot;color: light-dark(rgb(0, 0, 0), rgb(0, 0, 0)); font-size: 14px;&quot;&gt;&lt;b&gt;Paper&lt;/b&gt;&lt;/font&gt;&lt;/span&gt;&lt;/div&gt;" style="ellipse;whiteSpace=wrap;html=1;fillColor=light-dark(#FFFFFF,#FFFFFF);strokeColor=light-dark(#000000,#000000);" parent="1eNqCUqUD9JuJW1qk43Z-1" vertex="1">
          <mxGeometry x="47.5" y="350" width="165" height="60" as="geometry" />
        </mxCell>
        <mxCell id="1eNqCUqUD9JuJW1qk43Z-11" value="&lt;font face=&quot;Courier New&quot; style=&quot;color: light-dark(rgb(0, 0, 0), rgb(0, 0, 0)); font-size: 14px;&quot;&gt;&lt;b&gt;Gestione&lt;/b&gt;&lt;/font&gt;&lt;div&gt;&lt;font face=&quot;Courier New&quot; style=&quot;color: light-dark(rgb(0, 0, 0), rgb(0, 0, 0)); font-size: 14px;&quot;&gt;&lt;b&gt;Pubblicazione&lt;/b&gt;&lt;/font&gt;&lt;/div&gt;" style="ellipse;whiteSpace=wrap;html=1;fillColor=light-dark(#FFFFFF,#FFFFFF);strokeColor=light-dark(#000000,#000000);" parent="1eNqCUqUD9JuJW1qk43Z-1" vertex="1">
          <mxGeometry x="47.5" y="571" width="165" height="60" as="geometry" />
        </mxCell>
        <mxCell id="1eNqCUqUD9JuJW1qk43Z-30" value="&lt;font face=&quot;Courier New&quot; style=&quot;color: light-dark(rgb(0, 0, 0), rgb(0, 0, 0)); font-size: 14px;&quot;&gt;&lt;b&gt;Gestione&lt;/b&gt;&lt;/font&gt;&lt;div&gt;&lt;font face=&quot;Courier New&quot; style=&quot;color: light-dark(rgb(0, 0, 0), rgb(0, 0, 0)); font-size: 14px;&quot;&gt;&lt;b&gt;Scadenze&lt;/b&gt;&lt;/font&gt;&lt;/div&gt;" style="ellipse;whiteSpace=wrap;html=1;fillColor=light-dark(#FFFFFF,#FFFFFF);strokeColor=light-dark(#000000,#000000);" parent="1eNqCUqUD9JuJW1qk43Z-1" vertex="1">
          <mxGeometry x="47.5" y="460" width="165" height="60" as="geometry" />
        </mxCell>
        <mxCell id="1eNqCUqUD9JuJW1qk43Z-6" style="edgeStyle=orthogonalEdgeStyle;rounded=0;orthogonalLoop=1;jettySize=auto;html=1;endArrow=block;endFill=0;strokeColor=light-dark(#000000,#000000);strokeWidth=1;" parent="1" edge="1">
          <mxGeometry relative="1" as="geometry">
            <mxPoint x="109" y="186" as="targetPoint" />
            <mxPoint x="79" y="410" as="sourcePoint" />
            <Array as="points">
              <mxPoint x="49" y="410" />
              <mxPoint x="49" y="260" />
              <mxPoint x="109" y="260" />
            </Array>
          </mxGeometry>
        </mxCell>
        <mxCell id="1eNqCUqUD9JuJW1qk43Z-7" value="&lt;font face=&quot;Helvetica&quot; style=&quot;color: light-dark(rgb(0, 0, 0), rgb(0, 0, 0)); font-size: 14px;&quot;&gt;Autore&lt;/font&gt;" style="shape=umlActor;verticalLabelPosition=bottom;verticalAlign=top;html=1;outlineConnect=0;strokeColor=light-dark(#000000,#000000);fillColor=none;" parent="1" vertex="1">
          <mxGeometry x="90" y="600" width="30" height="60" as="geometry" />
        </mxCell>
        <mxCell id="1eNqCUqUD9JuJW1qk43Z-16" value="&lt;font face=&quot;Helvetica&quot; style=&quot;color: light-dark(rgb(0, 0, 0), rgb(0, 0, 0)); font-size: 14px;&quot;&gt;Chair&lt;/font&gt;" style="shape=umlActor;verticalLabelPosition=bottom;verticalAlign=top;html=1;outlineConnect=0;strokeColor=light-dark(#000000,#000000);fillColor=none;" parent="1" vertex="1">
          <mxGeometry x="90" y="500" width="30" height="60" as="geometry" />
        </mxCell>
        <mxCell id="1eNqCUqUD9JuJW1qk43Z-17" value="&lt;font face=&quot;Helvetica&quot; style=&quot;color: light-dark(rgb(0, 0, 0), rgb(0, 0, 0)); font-size: 14px;&quot;&gt;Revisore&lt;/font&gt;" style="shape=umlActor;verticalLabelPosition=bottom;verticalAlign=top;html=1;outlineConnect=0;strokeColor=light-dark(#000000,#000000);fillColor=none;" parent="1" vertex="1">
          <mxGeometry x="90" y="390" width="30" height="60" as="geometry" />
        </mxCell>
        <mxCell id="1eNqCUqUD9JuJW1qk43Z-18" value="&lt;font face=&quot;Helvetica&quot; style=&quot;color: light-dark(rgb(0, 0, 0), rgb(0, 0, 0)); font-size: 14px;&quot;&gt;Sotto-Revisore&lt;/font&gt;" style="shape=umlActor;verticalLabelPosition=bottom;verticalAlign=top;html=1;outlineConnect=0;strokeColor=light-dark(#000000,#000000);fillColor=none;" parent="1" vertex="1">
          <mxGeometry x="90" y="280" width="30" height="60" as="geometry" />
        </mxCell>
        <mxCell id="1eNqCUqUD9JuJW1qk43Z-22" style="rounded=0;orthogonalLoop=1;jettySize=auto;html=1;entryX=0;entryY=0.5;entryDx=0;entryDy=0;strokeColor=light-dark(#000000,#000000);endArrow=none;startFill=0;" parent="1" target="1eNqCUqUD9JuJW1qk43Z-10" edge="1">
          <mxGeometry relative="1" as="geometry">
            <mxPoint x="120" y="140" as="sourcePoint" />
          </mxGeometry>
        </mxCell>
        <mxCell id="1eNqCUqUD9JuJW1qk43Z-19" value="&lt;font style=&quot;color: light-dark(rgb(0, 0, 0), rgb(0, 0, 0)); font-size: 14px;&quot;&gt;Utente&lt;/font&gt;" style="shape=umlActor;verticalLabelPosition=bottom;verticalAlign=top;html=1;outlineConnect=0;strokeColor=light-dark(#000000,#000000);fillColor=none;" parent="1" vertex="1">
          <mxGeometry x="90" y="100" width="30" height="60" as="geometry" />
        </mxCell>
        <mxCell id="1eNqCUqUD9JuJW1qk43Z-23" style="rounded=0;orthogonalLoop=1;jettySize=auto;html=1;strokeColor=light-dark(#000000,#000000);endArrow=none;startFill=0;entryX=0;entryY=0.5;entryDx=0;entryDy=0;" parent="1" target="1eNqCUqUD9JuJW1qk43Z-13" edge="1">
          <mxGeometry relative="1" as="geometry">
            <mxPoint x="130" y="310" as="sourcePoint" />
            <mxPoint x="323" y="160" as="targetPoint" />
          </mxGeometry>
        </mxCell>
        <mxCell id="1eNqCUqUD9JuJW1qk43Z-24" style="rounded=0;orthogonalLoop=1;jettySize=auto;html=1;strokeColor=light-dark(#000000,#000000);endArrow=none;startFill=0;entryX=0;entryY=0.5;entryDx=0;entryDy=0;" parent="1" target="1eNqCUqUD9JuJW1qk43Z-13" edge="1">
          <mxGeometry relative="1" as="geometry">
            <mxPoint x="130" y="410" as="sourcePoint" />
            <mxPoint x="323" y="340" as="targetPoint" />
          </mxGeometry>
        </mxCell>
        <mxCell id="1eNqCUqUD9JuJW1qk43Z-25" style="rounded=0;orthogonalLoop=1;jettySize=auto;html=1;strokeColor=light-dark(#000000,#000000);endArrow=none;startFill=0;entryX=0;entryY=0.5;entryDx=0;entryDy=0;" parent="1" target="1eNqCUqUD9JuJW1qk43Z-14" edge="1">
          <mxGeometry relative="1" as="geometry">
            <mxPoint x="140" y="520" as="sourcePoint" />
            <mxPoint x="323" y="340" as="targetPoint" />
          </mxGeometry>
        </mxCell>
        <mxCell id="1eNqCUqUD9JuJW1qk43Z-26" style="rounded=0;orthogonalLoop=1;jettySize=auto;html=1;strokeColor=light-dark(#000000,#000000);endArrow=none;startFill=0;entryX=0;entryY=0.5;entryDx=0;entryDy=0;" parent="1" target="1eNqCUqUD9JuJW1qk43Z-15" edge="1">
          <mxGeometry relative="1" as="geometry">
            <mxPoint x="140" y="530" as="sourcePoint" />
            <mxPoint x="323" y="430" as="targetPoint" />
          </mxGeometry>
        </mxCell>
        <mxCell id="1eNqCUqUD9JuJW1qk43Z-27" style="rounded=0;orthogonalLoop=1;jettySize=auto;html=1;strokeColor=light-dark(#000000,#000000);endArrow=none;startFill=0;entryX=0;entryY=0.5;entryDx=0;entryDy=0;" parent="1" target="1eNqCUqUD9JuJW1qk43Z-11" edge="1">
          <mxGeometry relative="1" as="geometry">
            <mxPoint x="130" y="550" as="sourcePoint" />
            <mxPoint x="323" y="520" as="targetPoint" />
          </mxGeometry>
        </mxCell>
        <mxCell id="1eNqCUqUD9JuJW1qk43Z-28" style="rounded=0;orthogonalLoop=1;jettySize=auto;html=1;strokeColor=light-dark(#000000,#000000);endArrow=none;startFill=0;entryX=0;entryY=0.5;entryDx=0;entryDy=0;" parent="1" target="1eNqCUqUD9JuJW1qk43Z-13" edge="1">
          <mxGeometry relative="1" as="geometry">
            <mxPoint x="130" y="510" as="sourcePoint" />
            <mxPoint x="323" y="430" as="targetPoint" />
          </mxGeometry>
        </mxCell>
        <mxCell id="1eNqCUqUD9JuJW1qk43Z-29" style="rounded=0;orthogonalLoop=1;jettySize=auto;html=1;strokeColor=light-dark(#000000,#000000);endArrow=none;startFill=0;entryX=0;entryY=0.5;entryDx=0;entryDy=0;" parent="1" target="1eNqCUqUD9JuJW1qk43Z-11" edge="1">
          <mxGeometry relative="1" as="geometry">
            <mxPoint x="130" y="630" as="sourcePoint" />
            <mxPoint x="323" y="610" as="targetPoint" />
          </mxGeometry>
        </mxCell>
        <mxCell id="1eNqCUqUD9JuJW1qk43Z-31" style="rounded=0;orthogonalLoop=1;jettySize=auto;html=1;strokeColor=light-dark(#000000,#000000);endArrow=none;startFill=0;entryX=0;entryY=0.5;entryDx=0;entryDy=0;" parent="1" target="1eNqCUqUD9JuJW1qk43Z-30" edge="1">
          <mxGeometry relative="1" as="geometry">
            <mxPoint x="140" y="540" as="sourcePoint" />
            <mxPoint x="318" y="700" as="targetPoint" />
          </mxGeometry>
        </mxCell>
        <mxCell id="1eNqCUqUD9JuJW1qk43Z-32" value="&lt;font face=&quot;Helvetica&quot; style=&quot;color: light-dark(rgb(0, 0, 0), rgb(0, 0, 0)); font-size: 14px;&quot;&gt;DBMS&lt;/font&gt;" style="shape=umlActor;verticalLabelPosition=bottom;verticalAlign=top;html=1;outlineConnect=0;strokeColor=light-dark(#000000,#000000);fillColor=none;" parent="1" vertex="1">
          <mxGeometry x="740" y="400" width="30" height="60" as="geometry" />
        </mxCell>
        <mxCell id="1eNqCUqUD9JuJW1qk43Z-33" value="&lt;font style=&quot;color: light-dark(rgb(0, 0, 0), rgb(0, 0, 0)); font-size: 14px;&quot;&gt;Tempo&lt;/font&gt;" style="shape=umlActor;verticalLabelPosition=bottom;verticalAlign=top;html=1;outlineConnect=0;strokeColor=light-dark(#000000,#000000);fillColor=none;" parent="1" vertex="1">
          <mxGeometry x="740" y="580" width="30" height="60" as="geometry" />
        </mxCell>
        <mxCell id="1eNqCUqUD9JuJW1qk43Z-36" style="rounded=0;orthogonalLoop=1;jettySize=auto;html=1;strokeColor=light-dark(#000000,#000000);endArrow=none;startFill=0;exitX=1;exitY=0.5;exitDx=0;exitDy=0;" parent="1" source="1eNqCUqUD9JuJW1qk43Z-10" edge="1">
          <mxGeometry relative="1" as="geometry">
            <mxPoint x="530" y="330" as="sourcePoint" />
            <mxPoint x="730" y="410" as="targetPoint" />
          </mxGeometry>
        </mxCell>
        <mxCell id="1eNqCUqUD9JuJW1qk43Z-37" style="rounded=0;orthogonalLoop=1;jettySize=auto;html=1;strokeColor=light-dark(#000000,#000000);endArrow=none;startFill=0;exitX=1;exitY=0.5;exitDx=0;exitDy=0;" parent="1" source="1eNqCUqUD9JuJW1qk43Z-13" edge="1">
          <mxGeometry relative="1" as="geometry">
            <mxPoint x="488" y="250" as="sourcePoint" />
            <mxPoint x="720" y="420" as="targetPoint" />
          </mxGeometry>
        </mxCell>
        <mxCell id="1eNqCUqUD9JuJW1qk43Z-38" style="rounded=0;orthogonalLoop=1;jettySize=auto;html=1;strokeColor=light-dark(#000000,#000000);endArrow=none;startFill=0;exitX=1;exitY=0.5;exitDx=0;exitDy=0;" parent="1" source="1eNqCUqUD9JuJW1qk43Z-14" edge="1">
          <mxGeometry relative="1" as="geometry">
            <mxPoint x="488" y="340" as="sourcePoint" />
            <mxPoint x="720" y="430" as="targetPoint" />
          </mxGeometry>
        </mxCell>
        <mxCell id="1eNqCUqUD9JuJW1qk43Z-39" style="rounded=0;orthogonalLoop=1;jettySize=auto;html=1;strokeColor=light-dark(#000000,#000000);endArrow=none;startFill=0;exitX=1;exitY=0.5;exitDx=0;exitDy=0;" parent="1" source="1eNqCUqUD9JuJW1qk43Z-15" edge="1">
          <mxGeometry relative="1" as="geometry">
            <mxPoint x="480" y="510" as="sourcePoint" />
            <mxPoint x="720" y="440" as="targetPoint" />
          </mxGeometry>
        </mxCell>
        <mxCell id="1eNqCUqUD9JuJW1qk43Z-40" style="rounded=0;orthogonalLoop=1;jettySize=auto;html=1;strokeColor=light-dark(#000000,#000000);endArrow=none;startFill=0;exitX=1;exitY=0.5;exitDx=0;exitDy=0;" parent="1" source="1eNqCUqUD9JuJW1qk43Z-30" edge="1">
          <mxGeometry relative="1" as="geometry">
            <mxPoint x="490" y="520" as="sourcePoint" />
            <mxPoint x="720" y="450" as="targetPoint" />
          </mxGeometry>
        </mxCell>
        <mxCell id="1eNqCUqUD9JuJW1qk43Z-41" style="rounded=0;orthogonalLoop=1;jettySize=auto;html=1;strokeColor=light-dark(#000000,#000000);endArrow=none;startFill=0;exitX=1;exitY=0.5;exitDx=0;exitDy=0;" parent="1" source="1eNqCUqUD9JuJW1qk43Z-11" edge="1">
          <mxGeometry relative="1" as="geometry">
            <mxPoint x="488" y="610" as="sourcePoint" />
            <mxPoint x="730" y="460" as="targetPoint" />
          </mxGeometry>
        </mxCell>
        <mxCell id="1eNqCUqUD9JuJW1qk43Z-42" style="rounded=0;orthogonalLoop=1;jettySize=auto;html=1;strokeColor=light-dark(#000000,#000000);endArrow=none;startFill=0;exitX=1;exitY=0.5;exitDx=0;exitDy=0;" parent="1" source="1eNqCUqUD9JuJW1qk43Z-30" target="1eNqCUqUD9JuJW1qk43Z-33" edge="1">
          <mxGeometry relative="1" as="geometry">
            <mxPoint x="490" y="520" as="sourcePoint" />
            <mxPoint x="720" y="620" as="targetPoint" />
          </mxGeometry>
        </mxCell>
        <mxCell id="sZZkWRfHeeR4qMs7b2rZ-11" style="edgeStyle=orthogonalEdgeStyle;rounded=0;orthogonalLoop=1;jettySize=auto;html=1;endArrow=block;endFill=0;strokeColor=light-dark(#000000,#000000);" parent="1" edge="1">
          <mxGeometry relative="1" as="geometry">
            <mxPoint x="99" y="186" as="targetPoint" />
            <mxPoint x="80" y="520" as="sourcePoint" />
            <Array as="points">
              <mxPoint x="40" y="520" />
              <mxPoint x="40" y="250" />
              <mxPoint x="99" y="250" />
            </Array>
          </mxGeometry>
        </mxCell>
        <mxCell id="sZZkWRfHeeR4qMs7b2rZ-12" style="edgeStyle=orthogonalEdgeStyle;rounded=0;orthogonalLoop=1;jettySize=auto;html=1;endArrow=block;endFill=0;strokeColor=light-dark(#000000,#000000);" parent="1" edge="1">
          <mxGeometry relative="1" as="geometry">
            <mxPoint x="89" y="186" as="targetPoint" />
            <mxPoint x="80" y="620" as="sourcePoint" />
            <Array as="points">
              <mxPoint x="30" y="620" />
              <mxPoint x="30" y="240" />
              <mxPoint x="89" y="240" />
            </Array>
          </mxGeometry>
        </mxCell>
        <mxCell id="zpWcOhDEUucsBWKw6AgS-9" value="" style="endArrow=block;html=1;rounded=0;strokeColor=light-dark(#000000,#000000);endFill=0;strokeWidth=1;startSize=6;jumpSize=6;targetPerimeterSpacing=0;endSize=6;" parent="1" edge="1">
          <mxGeometry width="50" height="50" relative="1" as="geometry">
            <mxPoint x="80" y="300" as="sourcePoint" />
            <mxPoint x="118.75" y="186" as="targetPoint" />
            <Array as="points">
              <mxPoint x="80" y="300" />
              <mxPoint x="60" y="300" />
              <mxPoint x="60" y="270" />
              <mxPoint x="80" y="270" />
              <mxPoint x="120" y="270" />
            </Array>
          </mxGeometry>
        </mxCell>
      </root>
    </mxGraphModel>
  </diagram>
</mxfile>
